<svg width="20" height="20" viewBox="0 0 20 20" fill="none" xmlns="http://www.w3.org/2000/svg">
<path d="M10 0C4.486 0 0 4.486 0 10C0 15.514 4.486 20 10 20C15.514 20 20 15.514 20 10C20 4.486 15.5141 0 10 0ZM10 18.1818C5.48855 18.1818 1.81818 14.5115 1.81818 10C1.81818 5.48848 5.48855 1.81818 10 1.81818C14.5115 1.81818 18.1818 5.48855 18.1818 10C18.1818 14.5115 14.5115 18.1818 10 18.1818Z" fill="#1E87F0"/>
<path d="M9.99995 10.8984C9.99989 10.8984 10 10.8984 9.99995 10.8984C8.59158 10.8984 7.2674 11.4469 6.27158 12.4427C5.91655 12.7977 5.91655 13.3733 6.27158 13.7284C6.4491 13.9059 6.68176 13.9947 6.91443 13.9947C7.1471 13.9947 7.37976 13.9059 7.55722 13.7284C8.2097 13.0759 9.07722 12.7166 9.99995 12.7166C10.9227 12.7166 11.7902 13.076 12.4427 13.7284C12.7976 14.0833 13.3733 14.0833 13.7283 13.7284C14.0833 13.3734 14.0833 12.7978 13.7283 12.4427C12.7324 11.4469 11.4084 10.8984 9.99995 10.8984Z" fill="#1E87F0"/>
<path d="M6.97818 8.91757C7.20424 8.69212 7.33333 8.37939 7.33333 8.0606C7.33333 7.74181 7.20424 7.42909 6.97818 7.20357C6.75272 6.97818 6.44 6.84848 6.12121 6.84848C5.80182 6.84848 5.48969 6.97818 5.26424 7.20357C5.03879 7.42909 4.90909 7.74181 4.90909 8.0606C4.90909 8.37939 5.03879 8.69212 5.26424 8.91757C5.48969 9.14303 5.80242 9.27272 6.12121 9.27272C6.44 9.27272 6.75272 9.14303 6.97818 8.91757Z" fill="#1E87F0"/>
<path d="M13.8788 6.84848C13.5594 6.84848 13.2473 6.97818 13.0218 7.20357C12.7957 7.42909 12.6667 7.74181 12.6667 8.0606C12.6667 8.37939 12.7957 8.69212 13.0218 8.91757C13.2473 9.14303 13.56 9.27272 13.8788 9.27272C14.1976 9.27272 14.5103 9.14297 14.7357 8.91757C14.9618 8.69212 15.0909 8.37939 15.0909 8.0606C15.0909 7.74181 14.9618 7.42909 14.7357 7.20357C14.5103 6.97818 14.1976 6.84848 13.8788 6.84848Z" fill="#1E87F0"/>
</svg>
